<svg xmlns="http://www.w3.org/2000/svg" width="211.908" height="46.29" viewBox="0 0 211.908 46.29"><g transform="translate(0)"><g transform="translate(0 0)"><rect width="46.352" height="46.29" fill="#1a1818"/><rect width="165.556" height="46.29" transform="translate(46.352)" fill="#1a1818"/></g><rect width="35.836" height="35.815" transform="translate(5.258 5.238)" fill="#fff"/><rect width="160.38" height="35.815" transform="translate(46.29 5.238)" fill="#fff"/><path d="M71.155,37.808a4.213,4.213,0,1,1-4.2,4.2A4.237,4.237,0,0,1,71.155,37.808Z" transform="translate(-47.989 -26.939)" fill="#e50019" fill-rule="evenodd"/><path d="M276.528,68.607V65.481h0c1.842,0,2.733-2.07,2.733-5.3,0-3.167-.89-5.279-2.733-5.279h0V51.776h.021c3.561,0,7.246,2.381,7.246,8.405,0,6.045-3.685,8.426-7.246,8.426Zm17.742-.269H299.4V52.045h-3.83V63.266h-.062l-4.265-11.221h-5.093V68.338h3.83v-11.3h.1l4.182,11.3Zm10.372,0h4.389V55.357h3.5V52.045H301.122v3.312h3.519v12.98Zm9.709,0H324.64v-3.23h-6v-3.5h5.424V58.4h-5.424V55.275h5.714v-3.23h-10V68.338Zm24.015-4.14a5.979,5.979,0,0,1-3.126.911c-2.774,0-4.306-2.153-4.306-4.948,0-3.167,1.3-4.989,4.12-4.989a6.929,6.929,0,0,1,3.167.932l.228-3.581a10.112,10.112,0,0,0-3.933-.745c-5.362,0-8.115,3.5-8.115,8.281,0,5.735,3.4,8.55,8.136,8.55a14.388,14.388,0,0,0,4.016-.621ZM276.528,51.776V54.9c-1.863,0-2.753,2.132-2.753,5.279,0,3.23.89,5.3,2.733,5.3h.021v3.126c-3.54,0-7.2-2.4-7.2-8.426,0-6,3.664-8.405,7.2-8.405Zm-42.916,13.1V61.734h1.615L233.8,55.357h-.041l-.145.518v-3.83h2.65l5.176,16.293h-4.513l-.87-3.457Zm9.171,3.105a16.866,16.866,0,0,0,4.348.621c3.768,0,6.356-1.822,6.356-5.4a4.068,4.068,0,0,0-2.774-4.1l-1.946-.89c-1.428-.662-1.863-1.035-1.863-1.863,0-1.014.807-1.553,2.091-1.553a7.68,7.68,0,0,1,3.354.828l.186-3.209a11.144,11.144,0,0,0-4.1-.642c-3.437,0-5.921,1.739-5.921,4.824,0,2.319.828,3.747,3.519,4.782l.952.393c1.242.476,1.967.787,1.967,1.863,0,1.014-.58,1.739-2.236,1.739a8.5,8.5,0,0,1-3.685-.973l-.248,3.581ZM267.419,64.2a5.84,5.84,0,0,1-3.126.911c-2.753,0-4.306-2.153-4.306-4.948,0-3.167,1.325-4.989,4.12-4.989a6.76,6.76,0,0,1,3.167.932l.248-3.581a10.152,10.152,0,0,0-3.954-.745c-5.341,0-8.095,3.5-8.095,8.281,0,5.735,3.374,8.55,8.115,8.55a14.165,14.165,0,0,0,4.016-.621ZM233.612,52.045v3.83l-1.594,5.859h1.594v3.147h-2.36l-1.035,3.457h-4.2l5.4-16.293ZM218.893,62.313V58.835a1.75,1.75,0,0,0,1.532-1.739,1.69,1.69,0,0,0-1.532-1.9V52.045h.766c3.292,0,5.155,1.387,5.155,4.389a3.681,3.681,0,0,1-3.126,3.726v.062c.932.311,1.532.745,2.194,3.023l1.47,5.093h-4.534L219.6,63.7A2.949,2.949,0,0,0,218.893,62.313Zm-13.829-.828a1.717,1.717,0,0,1,1.573,1.946,1.657,1.657,0,0,1-1.573,1.842v3.064h.476c3.105,0,5.3-1.366,5.3-4.6a3.62,3.62,0,0,0-3.312-3.83v-.041a3.624,3.624,0,0,0,3.064-3.975c0-2.422-1.677-3.851-5.134-3.851h-.393v2.981a1.79,1.79,0,0,1,0,3.457v3Zm13.829-9.44v3.147c-.1,0-.228-.021-.331-.021H217.34v3.664h1.553v3.478a1.589,1.589,0,0,0-1.139-.352h-.228v6.376h-4.389V52.045Zm-15.4,13.249V61.485h1.573v-3a2.624,2.624,0,0,1-.7.083h-.87V54.985h1.118a3.1,3.1,0,0,1,.455.041V52.045h-5.776V68.338h5.776V65.274c-.124,0-.269.021-.414.021Z" transform="translate(-142.274 -36.891)" fill="#1a1818" fill-rule="evenodd"/><rect width="10.786" height="2.857" transform="translate(31.136 15.216)" fill="#1a1818"/><rect width="10.807" height="2.857" transform="translate(4.389 15.216)" fill="#1a1818"/><path d="M60.784,52.928H54.635l-5.486,9.937h.021v5.942h6.149V62.865h0l5.465-9.937Zm-28.176,0h6.149l5.486,9.937h0v5.942H38.073V62.865h0Z" transform="translate(-23.52 -37.712)" fill="#1a1818" fill-rule="evenodd"/></g></svg>